name analog
datacolumns 19
datarows 18
range 1.0395 1.048
endheader
time	ground_force_vx	ground_force_vy	ground_force_vz	ground_force_px	ground_force_py	ground_force_pz	l_ground_force_vx	l_ground_force_vy	l_ground_force_vz	l_ground_force_px	l_ground_force_py	l_ground_force_pz	ground_torque_x	ground_torque_y	ground_torque_z	l_ground_torque_x	l_ground_torque_y	l_ground_torque_z
1.0395	-0.0	-0.0	-0.0	-5.583873271942139	34.110557556152344	-431.6056518554688	-1.8566640615463257	-32.88095474243164	-443.04876708984375	-0.0	-0.0	-0.0	-0.0	-0.0	-0.0	125844.7734375	14282.8232421875	-15466.7333984375
1.04	-0.0	-0.0	-0.0	-4.156786918640137	33.513031005859375	-432.0631103515625	-1.3306617736816406	-32.3571891784668	-444.2213745117188	-0.0	-0.0	-0.0	-0.0	-0.0	-0.0	126160.3828125	14042.0126953125	-15375.1396484375
1.0405	-0.0	-0.0	-0.0	-3.0689728260040283	32.68418502807617	-432.5397338867188	-0.0828762277960777	-32.43962478637695	-445.5404357910156	-0.0	-0.0	-0.0	-0.0	-0.0	-0.0	126657.2265625	13775.2333984375	-15196.2890625
1.041	-0.0	-0.0	-0.0	-2.2121353149414062	32.02897262573242	-433.31732177734375	0.6322360634803772	-32.351444244384766	-448.5138854980469	-0.0	-0.0	-0.0	-0.0	-0.0	-0.0	127257.2109375	13483.5615234375	-15129.6796875
1.0415	-0.0	-0.0	-0.0	-2.194995880126953	31.01323509216309	-433.0150451660156	0.8297758102416992	-32.43989944458008	-451.7808532714844	-0.0	-0.0	-0.0	-0.0	-0.0	-0.0	128068.6171875	13382.751953125	-14996.669921875
1.042	-0.0	-0.0	-0.0	-1.2139716148376465	30.331430435180664	-434.6882629394531	1.2158528566360474	-33.063480377197266	-453.0755920410156	-0.0	-0.0	-0.0	-0.0	-0.0	-0.0	128728.6796875	13120.4931640625	-15089.0791015625
1.0425	-0.0	-0.0	-0.0	-0.4695938229560852	29.85868453979492	-433.3665161132813	1.3569002151489258	-33.1256103515625	-456.0313415527344	-0.0	-0.0	-0.0	-0.0	-0.0	-0.0	129351.5625	13084.615234375	-15066.337890625
1.043	-0.0	-0.0	-0.0	-0.2093241065740585	29.36176872253418	-432.55078125	1.4505362510681152	-33.4166259765625	-457.7189636230469	-0.0	-0.0	-0.0	-0.0	-0.0	-0.0	129827.3125	12837.142578125	-15217.884765625
1.0435	-0.0	-0.0	-0.0	-0.2918796837329864	29.793781280517575	-432.52337646484375	1.41937255859375	-33.889129638671875	-457.161865234375	-0.0	-0.0	-0.0	-0.0	-0.0	-0.0	129879.671875	12643.4609375	-15357.365234375
1.044	-0.0	-0.0	-0.0	-0.0553642511367797	29.262428283691406	-430.6359252929688	1.3040021657943726	-34.66168594360352	-459.1171875	-0.0	-0.0	-0.0	-0.0	-0.0	-0.0	130075.46875	12713.234375	-15485.05078125
1.0445	-0.0	-0.0	-0.0	0.415361225605011	29.231910705566406	-429.9414978027344	0.8871078491210938	-34.878807067871094	-459.1343994140625	-0.0	-0.0	-0.0	-0.0	-0.0	-0.0	130463.578125	12381.8427734375	-15663.267578125
1.045	-0.0	-0.0	-0.0	0.1557718515396118	28.396692276000977	-430.2944030761719	0.6866896748542786	-34.88706970214844	-461.001708984375	-0.0	-0.0	-0.0	-0.0	-0.0	-0.0	131042.25	12196.716796875	-15674.9453125
1.0455	-0.0	-0.0	-0.0	1.0656325817108154	28.432598114013672	-426.1478576660156	0.6209754943847656	-34.622100830078125	-460.07525634765625	-0.0	-0.0	-0.0	-0.0	-0.0	-0.0	130998.046875	11922.1923828125	-15749.654296875
1.046	-0.0	-0.0	-0.0	0.957520604133606	28.37614631652832	-422.050048828125	0.09574456512928	-34.564388275146484	-460.6520080566406	-0.0	-0.0	-0.0	-0.0	-0.0	-0.0	131284.8125	12045.3017578125	-15928.0234375
1.0465	-0.0	-0.0	-0.0	1.2469245195388794	28.049734115600582	-421.1108703613281	-0.9451441764831544	-34.29605865478516	-462.2767333984375	-0.0	-0.0	-0.0	-0.0	-0.0	-0.0	131794.046875	11892.0625	-16207.0556640625
1.047	-0.0	-0.0	-0.0	0.7725564241409302	28.316761016845703	-417.2113342285156	-1.9485421180725095	-34.50022888183594	-464.0103149414063	-0.0	-0.0	-0.0	-0.0	-0.0	-0.0	132116.234375	11524.1533203125	-16672.14453125
1.0475	-0.0	-0.0	-0.0	1.3684271574020386	27.47921371459961	-415.6991271972656	-3.1906979084014893	-33.885128021240234	-463.9136962890625	-0.0	-0.0	-0.0	-0.0	-0.0	-0.0	132694.6875	11395.646484375	-16892.619140625
1.048	-0.0	-0.0	-0.0	1.7540110349655151	27.153215408325195	-410.6341857910156	-3.578895092010498	-32.976985931396484	-464.8512573242188	-0.0	-0.0	-0.0	-0.0	-0.0	-0.0	133330.21875	11225.5654296875	-17158.529296875
